<mxfile host="app.diagrams.net" agent="Mozilla/5.0 (Windows NT 10.0; Win64; x64; rv:141.0) Gecko/20100101 Firefox/141.0" version="28.0.7">
  <diagram name="第 1 页" id="J2PG7OXGhMutSzTAEA44">
    <mxGraphModel dx="1366" dy="901" grid="1" gridSize="10" guides="1" tooltips="1" connect="1" arrows="1" fold="1" page="1" pageScale="1" pageWidth="827" pageHeight="1169" background="none" math="0" shadow="0">
      <root>
        <mxCell id="0" />
        <mxCell id="1" parent="0" />
        <mxCell id="F5nNeNiLRlNUEnwVanb9-2" value="" style="rounded=0;whiteSpace=wrap;html=1;rotation=90;glass=0;" parent="1" vertex="1">
          <mxGeometry x="10" y="100" width="580" height="440" as="geometry" />
        </mxCell>
        <mxCell id="BKyev_gYXUoBOTinh2bE-28" value="" style="rounded=1;whiteSpace=wrap;html=1;dashed=1;dashPattern=12 12;" parent="1" vertex="1">
          <mxGeometry x="90" y="80" width="420" height="150" as="geometry" />
        </mxCell>
        <mxCell id="BKyev_gYXUoBOTinh2bE-12" style="edgeStyle=orthogonalEdgeStyle;rounded=0;orthogonalLoop=1;jettySize=auto;html=1;exitX=0.5;exitY=1;exitDx=0;exitDy=0;entryX=0.5;entryY=0;entryDx=0;entryDy=0;" parent="1" source="BKyev_gYXUoBOTinh2bE-1" target="BKyev_gYXUoBOTinh2bE-6" edge="1">
          <mxGeometry relative="1" as="geometry" />
        </mxCell>
        <mxCell id="BKyev_gYXUoBOTinh2bE-1" value="SCD配置文件" style="rounded=0;whiteSpace=wrap;html=1;fillColor=#ffe6cc;strokeColor=#d79b00;" parent="1" vertex="1">
          <mxGeometry x="105" y="120" width="90" height="30" as="geometry" />
        </mxCell>
        <mxCell id="BKyev_gYXUoBOTinh2bE-2" value="&lt;b&gt;变电站多元数据聚合集成、数模交互技术&lt;/b&gt;" style="text;whiteSpace=wrap;html=1;" parent="1" vertex="1">
          <mxGeometry x="180" y="33" width="256" height="30" as="geometry" />
        </mxCell>
        <mxCell id="BKyev_gYXUoBOTinh2bE-4" value="数据孤岛问题" style="rounded=0;whiteSpace=wrap;html=1;fillColor=#ffe6cc;strokeColor=#d79b00;" parent="1" vertex="1">
          <mxGeometry x="305" y="180" width="90" height="30" as="geometry" />
        </mxCell>
        <mxCell id="BKyev_gYXUoBOTinh2bE-5" value="智能巡检" style="rounded=0;whiteSpace=wrap;html=1;fillColor=#ffe6cc;strokeColor=#d79b00;" parent="1" vertex="1">
          <mxGeometry x="205" y="180" width="90" height="30" as="geometry" />
        </mxCell>
        <mxCell id="BKyev_gYXUoBOTinh2bE-6" value="故障诊断场景" style="rounded=0;whiteSpace=wrap;html=1;fillColor=#ffe6cc;strokeColor=#d79b00;" parent="1" vertex="1">
          <mxGeometry x="105" y="180" width="90" height="30" as="geometry" />
        </mxCell>
        <mxCell id="BKyev_gYXUoBOTinh2bE-13" style="edgeStyle=orthogonalEdgeStyle;rounded=0;orthogonalLoop=1;jettySize=auto;html=1;exitX=0.5;exitY=1;exitDx=0;exitDy=0;entryX=0.5;entryY=0;entryDx=0;entryDy=0;" parent="1" source="BKyev_gYXUoBOTinh2bE-7" target="BKyev_gYXUoBOTinh2bE-5" edge="1">
          <mxGeometry relative="1" as="geometry" />
        </mxCell>
        <mxCell id="BKyev_gYXUoBOTinh2bE-7" value="GIM三维模型" style="rounded=0;whiteSpace=wrap;html=1;fillColor=#ffe6cc;strokeColor=#d79b00;" parent="1" vertex="1">
          <mxGeometry x="205" y="120" width="90" height="30" as="geometry" />
        </mxCell>
        <mxCell id="BKyev_gYXUoBOTinh2bE-14" style="edgeStyle=orthogonalEdgeStyle;rounded=0;orthogonalLoop=1;jettySize=auto;html=1;exitX=0.5;exitY=1;exitDx=0;exitDy=0;entryX=0.5;entryY=0;entryDx=0;entryDy=0;" parent="1" source="BKyev_gYXUoBOTinh2bE-8" target="BKyev_gYXUoBOTinh2bE-4" edge="1">
          <mxGeometry relative="1" as="geometry" />
        </mxCell>
        <mxCell id="BKyev_gYXUoBOTinh2bE-8" value="运维管理数据" style="rounded=0;whiteSpace=wrap;html=1;fillColor=#ffe6cc;strokeColor=#d79b00;" parent="1" vertex="1">
          <mxGeometry x="305" y="120" width="90" height="30" as="geometry" />
        </mxCell>
        <mxCell id="BKyev_gYXUoBOTinh2bE-15" style="edgeStyle=orthogonalEdgeStyle;rounded=0;orthogonalLoop=1;jettySize=auto;html=1;exitX=0.5;exitY=1;exitDx=0;exitDy=0;entryX=0.5;entryY=0;entryDx=0;entryDy=0;" parent="1" source="BKyev_gYXUoBOTinh2bE-9" target="BKyev_gYXUoBOTinh2bE-10" edge="1">
          <mxGeometry relative="1" as="geometry" />
        </mxCell>
        <mxCell id="BKyev_gYXUoBOTinh2bE-9" value="SCADA数据源" style="rounded=0;whiteSpace=wrap;html=1;fillColor=#ffe6cc;strokeColor=#d79b00;" parent="1" vertex="1">
          <mxGeometry x="405" y="120" width="90" height="30" as="geometry" />
        </mxCell>
        <mxCell id="BKyev_gYXUoBOTinh2bE-10" value="实时监控" style="rounded=0;whiteSpace=wrap;html=1;fillColor=#ffe6cc;strokeColor=#d79b00;" parent="1" vertex="1">
          <mxGeometry x="405" y="180" width="90" height="30" as="geometry" />
        </mxCell>
        <mxCell id="BKyev_gYXUoBOTinh2bE-18" value="" style="endArrow=none;html=1;rounded=0;" parent="1" edge="1">
          <mxGeometry width="50" height="50" relative="1" as="geometry">
            <mxPoint x="80" y="60" as="sourcePoint" />
            <mxPoint x="520" y="60" as="targetPoint" />
          </mxGeometry>
        </mxCell>
        <mxCell id="BKyev_gYXUoBOTinh2bE-21" value="&lt;b&gt;调研梳理&lt;/b&gt;" style="whiteSpace=wrap;html=1;rounded=1;glass=0;fillColor=#0050ef;fontColor=#ffffff;strokeColor=#001DBC;shadow=1;gradientColor=none;" parent="1" vertex="1">
          <mxGeometry x="247.5" y="67" width="105" height="30" as="geometry" />
        </mxCell>
        <mxCell id="BKyev_gYXUoBOTinh2bE-30" value="" style="rounded=1;whiteSpace=wrap;html=1;dashed=1;dashPattern=12 12;" parent="1" vertex="1">
          <mxGeometry x="90" y="260" width="420" height="150" as="geometry" />
        </mxCell>
        <mxCell id="BKyev_gYXUoBOTinh2bE-36" style="edgeStyle=orthogonalEdgeStyle;rounded=0;orthogonalLoop=1;jettySize=auto;html=1;exitX=1;exitY=0.5;exitDx=0;exitDy=0;entryX=0;entryY=0.5;entryDx=0;entryDy=0;" parent="1" source="BKyev_gYXUoBOTinh2bE-31" target="BKyev_gYXUoBOTinh2bE-32" edge="1">
          <mxGeometry relative="1" as="geometry" />
        </mxCell>
        <mxCell id="BKyev_gYXUoBOTinh2bE-31" value="&lt;div&gt;电网标识&lt;/div&gt;&lt;div&gt;编码体系&lt;/div&gt;" style="rounded=0;whiteSpace=wrap;html=1;fillColor=#d5e8d4;strokeColor=#82b366;" parent="1" vertex="1">
          <mxGeometry x="105" y="290" width="62.5" height="40" as="geometry" />
        </mxCell>
        <mxCell id="BKyev_gYXUoBOTinh2bE-37" style="edgeStyle=orthogonalEdgeStyle;rounded=0;orthogonalLoop=1;jettySize=auto;html=1;exitX=1;exitY=0.5;exitDx=0;exitDy=0;entryX=0;entryY=0.5;entryDx=0;entryDy=0;" parent="1" source="BKyev_gYXUoBOTinh2bE-32" target="BKyev_gYXUoBOTinh2bE-33" edge="1">
          <mxGeometry relative="1" as="geometry" />
        </mxCell>
        <mxCell id="BKyev_gYXUoBOTinh2bE-32" value="&lt;div&gt;物理层&lt;/div&gt;&lt;div&gt;设备数据&lt;/div&gt;" style="rounded=0;whiteSpace=wrap;html=1;fillColor=#d5e8d4;strokeColor=#82b366;" parent="1" vertex="1">
          <mxGeometry x="185" y="290" width="62.5" height="40" as="geometry" />
        </mxCell>
        <mxCell id="BKyev_gYXUoBOTinh2bE-38" style="edgeStyle=orthogonalEdgeStyle;rounded=0;orthogonalLoop=1;jettySize=auto;html=1;exitX=1;exitY=0.5;exitDx=0;exitDy=0;entryX=0;entryY=0.5;entryDx=0;entryDy=0;" parent="1" source="BKyev_gYXUoBOTinh2bE-33" target="BKyev_gYXUoBOTinh2bE-34" edge="1">
          <mxGeometry relative="1" as="geometry" />
        </mxCell>
        <mxCell id="BKyev_gYXUoBOTinh2bE-33" value="&lt;div&gt;逻辑层&lt;/div&gt;&lt;div&gt;功能配置&lt;/div&gt;" style="rounded=0;whiteSpace=wrap;html=1;fillColor=#d5e8d4;strokeColor=#82b366;" parent="1" vertex="1">
          <mxGeometry x="268.75" y="290" width="62.5" height="40" as="geometry" />
        </mxCell>
        <mxCell id="BKyev_gYXUoBOTinh2bE-39" style="edgeStyle=orthogonalEdgeStyle;rounded=0;orthogonalLoop=1;jettySize=auto;html=1;exitX=1;exitY=0.5;exitDx=0;exitDy=0;entryX=0;entryY=0.5;entryDx=0;entryDy=0;" parent="1" source="BKyev_gYXUoBOTinh2bE-34" target="BKyev_gYXUoBOTinh2bE-35" edge="1">
          <mxGeometry relative="1" as="geometry" />
        </mxCell>
        <mxCell id="BKyev_gYXUoBOTinh2bE-34" value="&lt;div&gt;应用层&lt;/div&gt;&lt;div&gt;业务流程&lt;/div&gt;" style="rounded=0;whiteSpace=wrap;html=1;fillColor=#d5e8d4;strokeColor=#82b366;" parent="1" vertex="1">
          <mxGeometry x="352.5" y="290" width="62.5" height="40" as="geometry" />
        </mxCell>
        <mxCell id="BKyev_gYXUoBOTinh2bE-29" value="&lt;b&gt;研判分析&lt;/b&gt;" style="whiteSpace=wrap;html=1;rounded=1;glass=0;fillColor=#0050ef;fontColor=#ffffff;strokeColor=#001DBC;shadow=1;gradientColor=none;" parent="1" vertex="1">
          <mxGeometry x="247.5" y="245" width="105" height="30" as="geometry" />
        </mxCell>
        <mxCell id="BKyev_gYXUoBOTinh2bE-35" value="&lt;div&gt;展示层&lt;/div&gt;&lt;div&gt;可视化&lt;/div&gt;" style="rounded=0;whiteSpace=wrap;html=1;fillColor=#d5e8d4;strokeColor=#82b366;" parent="1" vertex="1">
          <mxGeometry x="436" y="290" width="62.5" height="40" as="geometry" />
        </mxCell>
        <mxCell id="BKyev_gYXUoBOTinh2bE-47" style="edgeStyle=orthogonalEdgeStyle;rounded=0;orthogonalLoop=1;jettySize=auto;html=1;exitX=1;exitY=0.5;exitDx=0;exitDy=0;entryX=0;entryY=0.5;entryDx=0;entryDy=0;" parent="1" source="BKyev_gYXUoBOTinh2bE-42" target="BKyev_gYXUoBOTinh2bE-43" edge="1">
          <mxGeometry relative="1" as="geometry" />
        </mxCell>
        <mxCell id="BKyev_gYXUoBOTinh2bE-42" value="&lt;div&gt;RESTful&lt;/div&gt;&lt;div&gt;API&lt;/div&gt;" style="rounded=0;whiteSpace=wrap;html=1;fillColor=#d5e8d4;strokeColor=#82b366;" parent="1" vertex="1">
          <mxGeometry x="105" y="350" width="62.5" height="40" as="geometry" />
        </mxCell>
        <mxCell id="BKyev_gYXUoBOTinh2bE-48" style="edgeStyle=orthogonalEdgeStyle;rounded=0;orthogonalLoop=1;jettySize=auto;html=1;exitX=1;exitY=0.5;exitDx=0;exitDy=0;entryX=0;entryY=0.5;entryDx=0;entryDy=0;" parent="1" source="BKyev_gYXUoBOTinh2bE-43" target="BKyev_gYXUoBOTinh2bE-44" edge="1">
          <mxGeometry relative="1" as="geometry" />
        </mxCell>
        <mxCell id="BKyev_gYXUoBOTinh2bE-43" value="消息队列" style="rounded=0;whiteSpace=wrap;html=1;fillColor=#d5e8d4;strokeColor=#82b366;" parent="1" vertex="1">
          <mxGeometry x="185" y="350" width="62.5" height="40" as="geometry" />
        </mxCell>
        <mxCell id="BKyev_gYXUoBOTinh2bE-49" style="edgeStyle=orthogonalEdgeStyle;rounded=0;orthogonalLoop=1;jettySize=auto;html=1;exitX=1;exitY=0.5;exitDx=0;exitDy=0;entryX=0;entryY=0.5;entryDx=0;entryDy=0;" parent="1" source="BKyev_gYXUoBOTinh2bE-44" target="BKyev_gYXUoBOTinh2bE-45" edge="1">
          <mxGeometry relative="1" as="geometry" />
        </mxCell>
        <mxCell id="BKyev_gYXUoBOTinh2bE-44" value="实时映射" style="rounded=0;whiteSpace=wrap;html=1;fillColor=#d5e8d4;strokeColor=#82b366;" parent="1" vertex="1">
          <mxGeometry x="268.75" y="350" width="62.5" height="40" as="geometry" />
        </mxCell>
        <mxCell id="BKyev_gYXUoBOTinh2bE-50" style="edgeStyle=orthogonalEdgeStyle;rounded=0;orthogonalLoop=1;jettySize=auto;html=1;exitX=1;exitY=0.5;exitDx=0;exitDy=0;entryX=0;entryY=0.5;entryDx=0;entryDy=0;" parent="1" source="BKyev_gYXUoBOTinh2bE-45" target="BKyev_gYXUoBOTinh2bE-46" edge="1">
          <mxGeometry relative="1" as="geometry" />
        </mxCell>
        <mxCell id="BKyev_gYXUoBOTinh2bE-45" value="&lt;div&gt;历史回放&lt;/div&gt;&lt;div&gt;关联&lt;/div&gt;" style="rounded=0;whiteSpace=wrap;html=1;fillColor=#d5e8d4;strokeColor=#82b366;" parent="1" vertex="1">
          <mxGeometry x="352.5" y="350" width="62.5" height="40" as="geometry" />
        </mxCell>
        <mxCell id="BKyev_gYXUoBOTinh2bE-46" value="&lt;div&gt;模型反馈&lt;/div&gt;&lt;div&gt;校验&lt;/div&gt;" style="rounded=0;whiteSpace=wrap;html=1;fillColor=#d5e8d4;strokeColor=#82b366;" parent="1" vertex="1">
          <mxGeometry x="436" y="350" width="62.5" height="40" as="geometry" />
        </mxCell>
        <mxCell id="BKyev_gYXUoBOTinh2bE-52" value="" style="rounded=1;whiteSpace=wrap;html=1;dashed=1;dashPattern=12 12;" parent="1" vertex="1">
          <mxGeometry x="90" y="435" width="420" height="165" as="geometry" />
        </mxCell>
        <mxCell id="BKyev_gYXUoBOTinh2bE-51" value="&lt;b&gt;研究成果&lt;/b&gt;" style="whiteSpace=wrap;html=1;rounded=1;glass=0;fillColor=#0050ef;fontColor=#ffffff;strokeColor=#001DBC;shadow=1;gradientColor=none;" parent="1" vertex="1">
          <mxGeometry x="247.5" y="422" width="105" height="30" as="geometry" />
        </mxCell>
        <mxCell id="BKyev_gYXUoBOTinh2bE-53" style="edgeStyle=orthogonalEdgeStyle;rounded=0;orthogonalLoop=1;jettySize=auto;html=1;exitX=0.5;exitY=1;exitDx=0;exitDy=0;" parent="1" edge="1">
          <mxGeometry relative="1" as="geometry">
            <mxPoint x="300" y="457" as="sourcePoint" />
            <mxPoint x="300" y="457" as="targetPoint" />
          </mxGeometry>
        </mxCell>
        <mxCell id="BKyev_gYXUoBOTinh2bE-54" value="系统架构" style="rounded=0;whiteSpace=wrap;html=1;fillColor=#e1d5e7;strokeColor=#9673a6;" parent="1" vertex="1">
          <mxGeometry x="121.25" y="463.75" width="77.5" height="30" as="geometry" />
        </mxCell>
        <mxCell id="BKyev_gYXUoBOTinh2bE-55" value="属性定义" style="rounded=0;whiteSpace=wrap;html=1;fillColor=#e1d5e7;strokeColor=#9673a6;" parent="1" vertex="1">
          <mxGeometry x="121.25" y="503.75" width="77.5" height="30" as="geometry" />
        </mxCell>
        <mxCell id="BKyev_gYXUoBOTinh2bE-56" value="三维模型" style="rounded=0;whiteSpace=wrap;html=1;fillColor=#e1d5e7;strokeColor=#9673a6;" parent="1" vertex="1">
          <mxGeometry x="121.25" y="543.75" width="77.5" height="30" as="geometry" />
        </mxCell>
        <mxCell id="BKyev_gYXUoBOTinh2bE-57" value="" style="strokeWidth=2;html=1;shape=mxgraph.flowchart.annotation_2;align=left;labelPosition=right;pointerEvents=1;rotation=-180;" parent="1" vertex="1">
          <mxGeometry x="201.25" y="476.25" width="45" height="85" as="geometry" />
        </mxCell>
        <mxCell id="BKyev_gYXUoBOTinh2bE-60" style="edgeStyle=orthogonalEdgeStyle;rounded=0;orthogonalLoop=1;jettySize=auto;html=1;exitX=1;exitY=0.5;exitDx=0;exitDy=0;entryX=0;entryY=0.5;entryDx=0;entryDy=0;" parent="1" source="BKyev_gYXUoBOTinh2bE-58" target="BKyev_gYXUoBOTinh2bE-59" edge="1">
          <mxGeometry relative="1" as="geometry" />
        </mxCell>
        <mxCell id="BKyev_gYXUoBOTinh2bE-58" value="三维精细化建模方法" style="rounded=0;whiteSpace=wrap;html=1;fillColor=#e1d5e7;strokeColor=#9673a6;" parent="1" vertex="1">
          <mxGeometry x="241.25" y="461.25" width="35" height="112.5" as="geometry" />
        </mxCell>
        <mxCell id="BKyev_gYXUoBOTinh2bE-59" value="三维通用模型库" style="rounded=0;whiteSpace=wrap;html=1;fillColor=#e1d5e7;strokeColor=#9673a6;" parent="1" vertex="1">
          <mxGeometry x="296.25" y="461.25" width="35" height="112.5" as="geometry" />
        </mxCell>
        <mxCell id="BKyev_gYXUoBOTinh2bE-64" style="edgeStyle=orthogonalEdgeStyle;rounded=0;orthogonalLoop=1;jettySize=auto;html=1;exitX=0.5;exitY=1;exitDx=0;exitDy=0;entryX=0.5;entryY=0;entryDx=0;entryDy=0;" parent="1" source="BKyev_gYXUoBOTinh2bE-61" target="BKyev_gYXUoBOTinh2bE-62" edge="1">
          <mxGeometry relative="1" as="geometry" />
        </mxCell>
        <mxCell id="BKyev_gYXUoBOTinh2bE-61" value="&lt;div&gt;统一数据&lt;/div&gt;&lt;div&gt;标准规范&lt;/div&gt;" style="rounded=0;whiteSpace=wrap;html=1;fillColor=#e1d5e7;strokeColor=#9673a6;" parent="1" vertex="1">
          <mxGeometry x="370" y="442.5" width="90" height="37.5" as="geometry" />
        </mxCell>
        <mxCell id="BKyev_gYXUoBOTinh2bE-65" style="edgeStyle=orthogonalEdgeStyle;rounded=0;orthogonalLoop=1;jettySize=auto;html=1;exitX=0.5;exitY=1;exitDx=0;exitDy=0;entryX=0.5;entryY=0;entryDx=0;entryDy=0;" parent="1" source="BKyev_gYXUoBOTinh2bE-62" target="BKyev_gYXUoBOTinh2bE-63" edge="1">
          <mxGeometry relative="1" as="geometry" />
        </mxCell>
        <mxCell id="BKyev_gYXUoBOTinh2bE-62" value="多源数据聚合" style="rounded=0;whiteSpace=wrap;html=1;fillColor=#e1d5e7;strokeColor=#9673a6;" parent="1" vertex="1">
          <mxGeometry x="370" y="495" width="90" height="37.5" as="geometry" />
        </mxCell>
        <mxCell id="BKyev_gYXUoBOTinh2bE-63" value="&lt;div&gt;三维可视化&lt;/div&gt;&lt;div&gt;展示平台&lt;/div&gt;" style="rounded=0;whiteSpace=wrap;html=1;fillColor=#e1d5e7;strokeColor=#9673a6;" parent="1" vertex="1">
          <mxGeometry x="370" y="547.5" width="90" height="37.5" as="geometry" />
        </mxCell>
      </root>
    </mxGraphModel>
  </diagram>
</mxfile>
